<svg xmlns="http://www.w3.org/2000/svg" version="1.1" xmlns:xlink="http://www.w3.org/1999/xlink" viewBox="0 0 700 700" style="overflow: hidden; display: block;" width="700" height="700"><defs></defs><g id="two-0" transform="matrix(1 0 0 1 0 0)" opacity="1"><path transform="matrix(1 0 0 1 350 350)" id="two-124" d="M 249.614353 85.692715 C 235.328662 119.708554 270.03046 164.364137 253.6448 197.419672 C 238.339131 228.296493 198.701587 241.370352 168.308296 257.615025 C 139.020251 273.268964 106.258353 284.418935 74.389792 293.758647 C 41.916017 303.27573 6.69398 322.942551 -26.052985 314.412763 C -60.285984 305.4959 -74.246022 257.26007 -107.177569 244.340244 C -142.234377 230.586627 -192.089131 264.173593 -221.222257 240.311431 C -249.258217 217.347928 -228.961078 165.110188 -246.641165 133.475523 C -264.658164 101.238028 -313.296391 89.116392 -325.797496 54.365986 C -337.807511 20.980704 -330.070439 -20.271102 -315.594322 -52.663378 C -301.159373 -84.963536 -258.52911 -99.70992 -242.870115 -131.434734 C -226.35268 -164.898731 -253.519519 -220.597644 -223.569984 -242.861743 C -190.58982 -267.378774 -140.864386 -224.036633 -99.947708 -227.857823 C -72.720207 -230.400586 -45.126841 -240.1119 -20.956015 -252.901491 C 18.425547 -273.739592 41.119533 -342.995071 85.177032 -336.356495 C 124.872331 -330.375214 124.779026 -263.420504 154.399104 -236.325423 C 178.56006 -214.224096 221.1942 -213.644949 240.688847 -187.33565 C 260.263325 -160.918615 247.441429 -119.33964 262.525744 -90.125202 C 280.874287 -54.588792 345.530681 -39.944851 343.552191 -0.000001 C 341.476431 41.908691 265.861725 47.005895 249.614353 85.692715 Z " fill="hsl(105, 69%, 30%)" stroke="undefined" stroke-width="1" stroke-opacity="1" fill-opacity="1" visibility="visible" stroke-linecap="butt" stroke-linejoin="miter" stroke-miterlimit="4"></path></g></svg>
